<svg xmlns="http://www.w3.org/2000/svg" xmlns:xlink="http://www.w3.org/1999/xlink" viewBox="0 0 1353 24" width="1353" height="24" preserveAspectRatio="xMidYMid meet" style="width: 100%; height: 100%; transform: translate3d(0px, 0px, 0px); content-visibility: visible;"><defs><clipPath id="__lottie_element_4"><rect width="1353" height="24" x="0" y="0"></rect></clipPath></defs><g clip-path="url(#__lottie_element_4)"><g transform="matrix(1,0,0,1,0,0)" opacity="1" style="display: block;"><g opacity="1" transform="matrix(1,0,0,1,676.5,11.920000076293945)"><path stroke-linecap="butt" stroke-linejoin="miter" fill-opacity="0" stroke-miterlimit="4" stroke="rgb(255,255,255)" stroke-opacity="1" stroke-width="1" d=" M-676.5,-10.920000076293945 C-676.5,-10.920000076293945 -525.7479858398438,-10.920000076293945 -525.7479858398438,-10.920000076293945 C-525.7479858398438,-10.920000076293945 -503.9079895019531,10.920000076293945 -503.9079895019531,10.920000076293945 C-503.9079895019531,10.920000076293945 -61.81399917602539,10.920000076293945 -61.81399917602539,10.920000076293945 C-61.81399917602539,10.920000076293945 -39.9739990234375,-10.920000076293945 -39.9739990234375,-10.920000076293945 C-39.9739990234375,-10.920000076293945 -0.9269999861717224,-10.920000076293945 -0.9269999861717224,-10.920000076293945 C-0.9269999861717224,-10.920000076293945 0.9279999732971191,-10.920000076293945 0.9279999732971191,-10.920000076293945 C0.9279999732971191,-10.920000076293945 39.974998474121094,-10.920000076293945 39.974998474121094,-10.920000076293945 C39.974998474121094,-10.920000076293945 61.814998626708984,10.920000076293945 61.814998626708984,10.920000076293945 C61.814998626708984,10.920000076293945 503.9100036621094,10.920000076293945 503.9100036621094,10.920000076293945 C503.9100036621094,10.920000076293945 525.75,-10.920000076293945 525.75,-10.920000076293945 C525.75,-10.920000076293945 676.5,-10.920000076293945 676.5,-10.920000076293945"></path></g></g></g></svg>