<svg width="179" height="22" viewBox="0 0 179 22" fill="none" xmlns="http://www.w3.org/2000/svg">
<path d="M135.033 0V15.9047L138.739 18.8378H146.97L150.676 15.9047V0H153.817V17.4252L148.062 21.9768H137.648L131.893 17.4252V0H135.033Z" fill="#C8C8C8"/>
<path d="M128.752 0H125.611V21.9774H128.752V0Z" fill="#C8C8C8"/>
<path d="M179 21.9774H174.762L170.05 16.1425L172.139 13.5542L179 21.9774ZM170.05 10.9887L167.961 13.5542L157.018 0H161.1L170.05 10.9887Z" fill="#C8C8C8"/>
<path d="M170.045 10.9887L161.174 21.9774H156.935L167.975 8.42293L170.045 10.9887ZM178.918 0L172.117 8.42293L170.045 5.87981L174.834 0H178.918Z" fill="#C8C8C8"/>
<path d="M3.14029 0.000176596H0V21.9775H3.14029V0.000176596Z" fill="#C8C8C8"/>
<path d="M21.9803 0H18.8401V21.9774H21.9803V0Z" fill="#C8C8C8"/>
<path d="M18.8431 9.41879H3.14167V12.5584H18.8431V9.41879Z" fill="#C8C8C8"/>
<path d="M103.633 0H100.493V21.9774H103.633V0Z" fill="#C8C8C8"/>
<path d="M122.473 0H119.333V9.41884H122.473V0Z" fill="#C8C8C8"/>
<path d="M122.475 0H100.493V3.13961H122.475V0Z" fill="#C8C8C8"/>
<path d="M122.453 21.9773L113.026 9.44291L110.758 11.663L118.763 21.9773H122.453Z" fill="#C8C8C8"/>
<path d="M115.405 11.9544L120.272 7.08804L122.47 9.4188L119.958 11.9544H115.405Z" fill="#C8C8C8"/>
<path d="M103.629 9.41879H113.05V12.5584H103.629V9.41879Z" fill="#C8C8C8"/>
<path d="M78.51 6.27922H75.3698V21.9773H78.51V6.27922Z" fill="#C8C8C8"/>
<path d="M97.3496 0H81.6481V3.13961H97.3496V0Z" fill="#C8C8C8"/>
<path d="M75.3892 6.30318L81.6698 0.0239697L83.9383 2.24401L77.6097 8.57112L75.3892 6.30318Z" fill="#C8C8C8"/>
<path d="M78.5308 14.3092L83.3742 9.41879L85.5726 11.6165L82.9032 14.3092H78.5308Z" fill="#C8C8C8"/>
<path d="M94.2108 9.41879H83.3768V12.5584H94.2108V9.41879Z" fill="#C8C8C8"/>
<path d="M97.3531 18.8376H78.5114V21.9773H97.3531V18.8376Z" fill="#C8C8C8"/>
<path d="M53.3868 9.41879H50.2465V21.9772H53.3868V9.41879Z" fill="#C8C8C8"/>
<path d="M72.2268 3.13957H69.0865V9.41878H72.2268V3.13957Z" fill="#C8C8C8"/>
<path d="M72.2287 0H50.2465V3.13961H72.2287V0Z" fill="#C8C8C8"/>
<path d="M56.6839 9.41879H72.2283L69.0882 12.5584H53.5435L56.6839 9.41879Z" fill="#C8C8C8"/>
<path d="M47.1039 0V7.18095L37.683 12.6754V21.9778H34.5423V12.6773L25.1213 7.22658V0.0417497H28.262V5.41581L36.1088 9.95778L43.9633 5.37697V0H47.1039Z" fill="#C8C8C8"/>
</svg>
