<svg width="27" height="15" viewBox="0 0 27 15" fill="none" xmlns="http://www.w3.org/2000/svg">
<path d="M6.46138 14.5168C5.44249 14.5168 4.59524 13.857 4.34694 12.8649L3.32081 8.76143H0.934878C0.418701 8.76143 0 8.34272 0 7.82655C0 7.31037 0.418701 6.89167 0.934878 6.89167H4.05114C4.47969 6.89167 4.85451 7.18385 4.95797 7.60018L6.1606 12.4109C6.21046 12.6094 6.34932 12.6544 6.46861 12.6472C6.63178 12.6447 6.73274 12.5619 6.76802 12.4025L9.10522 1.71706C9.31214 0.768839 10.1022 0.0822643 11.07 0.00797268C12.0462 -0.0747952 12.9226 0.493611 13.272 1.39932L16.7645 10.4804C16.8302 10.6508 16.9483 10.6691 17.0628 10.6812C17.1626 10.6787 17.294 10.6398 17.3512 10.4669L19.0396 5.39935C19.3208 4.55946 20.0731 3.97634 20.9569 3.91427C21.8322 3.8315 22.6647 4.322 23.0616 5.11453L23.8638 6.72015C23.9174 6.8261 24.0233 6.89179 24.1425 6.89179H25.865C26.3811 6.89179 26.7998 7.31049 26.7998 7.82667C26.7998 8.34285 26.3811 8.76155 25.865 8.76155H24.1425C23.3099 8.76155 22.5625 8.29897 22.1913 7.55518L21.389 5.94956C21.3086 5.79013 21.165 5.76819 21.0884 5.77916C21.0105 5.78403 20.8717 5.8193 20.8133 5.99094L19.1261 11.0585C18.8303 11.9435 18.0379 12.529 17.1054 12.5497C16.1876 12.5472 15.3537 12.0214 15.019 11.1522L11.5266 2.07119C11.4584 1.89107 11.3087 1.87524 11.2124 1.8715C11.1065 1.87997 10.9726 1.92871 10.9312 2.11619L8.59403 12.8016C8.37364 13.8119 7.53138 14.501 6.49666 14.5168H6.46138Z" fill="white"/>
</svg>
