<?xml version="1.0" encoding="UTF-8"?>
<svg id="Layer_1" xmlns="http://www.w3.org/2000/svg" version="1.1" viewBox="0 0 1000 1000">
  <!-- Generator: Adobe Illustrator 29.1.0, SVG Export Plug-In . SVG Version: 2.1.0 Build 142)  -->
  <path d="M748.23,269.03c.24,1.74-2.27.94-3.48.99-19.36.75-40.07-1.08-59.98-.04-6.35.33-13.51,1.39-19.91,2.07-1.4.02-1.7.63-2.35,1.64-1.72,2.66-5.39,17.98-6.82,18.34-3.66.8-7.5-1.17-10.83-1.12-93.49,1.22-184.9,33.57-262.71,83.92-13.28,8.59-26.03,17.97-38.5,27.66,5.74,22.43,15.04,44.91,24.86,65.88,32.72,69.84,81.06,134.39,144.04,179.49,5.7,13.11,4.61,25.16,15.42,35.5,12.45,11.9,29.74,24.63,43.58,35.31,18.35,14.15,37.84,26.89,55.83,41.52-20.2-7.5-39.91-17.34-58.95-27.42-139.47-73.83-278.28-197.13-333.33-348.68-1.25-3.45-8.07-22.31-7.06-24.02,40.99-35.29,89.08-61.2,139.4-80.8,120.4-46.89,258.33-54.02,380.79-10.22Z"/>
  <path d="M784.23,346.84c39.62,21.73,76.89,54.93,104.81,90.42,1.01,1.28,7.68,9.72,7.01,10.45-43.19-37.84-98.64-63.47-156.31-68.87-79.84-7.48-160.12,23.79-219.24,76.35-4.59,4.08-12.49,10.16-13.02,15.94-1.1,12.13.41,31.27,1.01,44.01.68,14.53,1.89,29.36,3.04,43.88.86,10.79,2.98,21.62,2.98,32.45-7.92-7.57-14.87-17.18-21.19-26.23-25.01-35.88-44.61-78.34-54.74-120.97.57-4.13,32.04-31.08,37.52-35.45,44.58-35.46,98.71-62.55,154.46-75.23,54.57-12.42,109.78-11.76,164.64-1.2,1.8,1.41.31,1.42-.68,2.35-1.95,1.82-12.13,9.38-10.28,12.1Z"/>
  <path d="M210.79,488.7c59.94,93.26,144.21,171.79,241.13,225.74l43.61,21.78-119.61-27.69c-10.86-1.92-27.06,1.91-37.23-.72-7.88-2.04-25.51-12.08-33.6-16.33-74.17-38.98-141.19-96.68-194.07-161.42-1.31-1.6-8-9.08-7.01-10.44,17.85-7.46,35.91-13.52,54.9-17.52,17.74-3.74,35.52-4.17,51.89-13.39Z"/>
</svg>